<svg xmlns="http://www.w3.org/2000/svg" viewBox="0 0 1024 1024"><style>svg { background: #000425; background: linear-gradient(135deg, #232f4e 30%, #030303 90%) }</style><path fill="#eeff35" d="M 1024.00,0.00 C 1024.00,0.00 1024.00,1024.00 1024.00,1024.00 1024.00,1024.00 0.00,1024.00 0.00,1024.00 0.00,1024.00 0.00,0.00 0.00,0.00 0.00,0.00 1024.00,0.00 1024.00,0.00 Z M 15.00,15.00 C 15.00,15.00 15.00,1009.00 15.00,1009.00 15.00,1009.00 1009.00,1009.00 1009.00,1009.00 1009.00,1009.00 1009.00,15.00 1009.00,15.00 1009.00,15.00 15.00,15.00 15.00,15.00 Z M 230.00,753.00 C 230.00,753.00 230.00,873.00 230.00,873.00 230.00,873.00 110.00,873.00 110.00,873.00 110.00,873.00 110.00,753.00 110.00,753.00 110.00,753.00 230.00,753.00 230.00,753.00 Z M 914.00,753.00 C 914.00,753.00 914.00,873.00 914.00,873.00 914.00,873.00 794.00,873.00 794.00,873.00 794.00,873.00 794.00,753.00 794.00,753.00 794.00,753.00 914.00,753.00 914.00,753.00 Z M 230.00,151.00 C 230.00,151.00 230.00,271.00 230.00,271.00 230.00,271.00 110.00,271.00 110.00,271.00 110.00,271.00 110.00,151.00 110.00,151.00 110.00,151.00 230.00,151.00 230.00,151.00 Z M 914.00,151.00 C 914.00,151.00 914.00,271.00 914.00,271.00 914.00,271.00 794.00,271.00 794.00,271.00 794.00,271.00 794.00,151.00 794.00,151.00 794.00,151.00 914.00,151.00 914.00,151.00 Z M 390.00,545.00 C 385.02,544.94 379.92,544.05 375.00,543.25 343.70,538.12 310.06,519.85 310.00,484.00 310.00,484.00 310.00,427.00 310.00,427.00 310.07,383.84 353.78,362.06 392.00,362.00 392.00,362.00 632.00,362.00 632.00,362.00 658.44,362.04 696.87,371.49 709.63,397.00 714.42,406.59 715.00,414.60 715.00,425.00 715.00,425.00 413.00,425.00 413.00,425.00 413.00,425.00 413.00,481.00 413.00,481.00 413.00,481.00 632.00,481.00 632.00,481.00 632.00,481.00 649.00,482.92 649.00,482.92 678.42,487.75 714.83,502.78 715.00,538.00 715.00,538.00 715.00,604.00 715.00,604.00 714.94,641.20 680.96,656.69 649.00,661.27 643.01,662.13 637.06,662.99 631.00,663.00 631.00,663.00 396.00,663.00 396.00,663.00 367.99,662.96 327.69,649.46 314.38,623.00 310.53,615.35 310.00,609.32 310.00,601.00 310.00,601.00 615.00,601.00 615.00,601.00 615.00,601.00 615.00,545.00 615.00,545.00 615.00,545.00 390.00,545.00 390.00,545.00 Z" /></svg>
