<?xml version="1.0" encoding="UTF-8" standalone="no"?><svg style="background: #000425;" xmlns="http://www.w3.org/2000/svg" viewBox="-100 0 700 100"><path fill="#eeff35" d="M 113.00,53.00 C 110.04,52.96 106.68,52.93 104.15,51.15 100.05,48.26 99.90,39.91 103.43,36.51 106.35,33.70 111.24,34.01 115.00,34.00 120.75,33.99 137.71,32.94 141.85,35.85 144.07,37.41 144.28,38.61 145.00,41.00 145.00,41.00 112.00,41.00 112.00,41.00 112.00,41.00 112.00,46.00 112.00,46.00 112.00,46.00 133.00,46.00 133.00,46.00 136.39,46.05 140.03,46.22 142.69,48.65 145.95,51.63 145.90,60.49 142.69,63.49 139.70,66.27 134.80,65.99 131.00,66.00 125.42,66.01 109.30,66.90 105.11,64.55 102.44,63.05 101.97,61.68 101.00,59.00 101.00,59.00 134.00,59.00 134.00,59.00 134.00,59.00 134.00,53.00 134.00,53.00 134.00,53.00 113.00,53.00 113.00,53.00 Z M 25.00,40.00 C 25.00,40.00 25.00,50.00 25.00,50.00 25.00,50.00 17.00,50.00 17.00,50.00 17.00,50.00 17.00,40.00 17.00,40.00 17.00,40.00 25.00,40.00 25.00,40.00 Z M 67.00,40.00 C 67.00,40.00 67.00,50.00 67.00,50.00 67.00,50.00 59.00,50.00 59.00,50.00 59.00,50.00 59.00,40.00 59.00,40.00 59.00,40.00 67.00,40.00 67.00,40.00 Z M 441.00,40.00 C 441.00,40.00 441.00,50.00 441.00,50.00 441.00,50.00 433.00,50.00 433.00,50.00 433.00,50.00 433.00,40.00 433.00,40.00 433.00,40.00 441.00,40.00 441.00,40.00 Z M 483.00,40.00 C 483.00,40.00 483.00,50.00 483.00,50.00 483.00,50.00 475.00,50.00 475.00,50.00 475.00,50.00 475.00,40.00 475.00,40.00 475.00,40.00 483.00,40.00 483.00,40.00 Z M 157.00,42.00 C 157.00,42.00 181.00,42.00 181.00,42.00 178.97,48.35 174.69,47.00 169.00,47.00 169.00,62.20 170.72,65.66 161.00,66.00 161.00,66.00 161.00,47.00 161.00,47.00 161.00,47.00 149.00,47.00 149.00,47.00 150.55,42.15 152.17,42.09 157.00,42.00 Z M 186.02,45.23 C 188.27,41.55 193.28,42.01 197.00,42.00 197.00,42.00 217.00,42.00 217.00,42.00 217.00,42.00 217.00,66.00 217.00,66.00 217.00,66.00 209.00,66.00 209.00,66.00 209.00,66.00 209.00,57.00 209.00,57.00 209.00,57.00 193.00,57.00 193.00,57.00 192.77,63.50 191.66,65.23 185.00,66.00 185.00,62.02 184.36,47.94 186.02,45.23 Z M 248.94,42.74 C 253.72,44.73 256.33,54.78 246.00,57.00 246.00,57.00 253.00,66.00 253.00,66.00 250.80,66.00 247.02,66.16 245.04,65.40 240.77,63.76 235.10,55.08 233.00,51.00 233.00,51.00 245.00,51.00 245.00,51.00 245.00,51.00 245.00,47.00 245.00,47.00 245.00,47.00 229.00,47.00 229.00,47.00 229.00,61.62 230.63,65.43 221.00,66.00 221.00,66.00 221.00,42.00 221.00,42.00 225.82,42.00 245.82,41.43 248.94,42.74 Z M 266.00,42.00 C 266.00,42.00 290.00,42.00 290.00,42.00 287.97,48.35 283.69,47.00 278.00,47.00 278.00,62.20 279.72,65.66 270.00,66.00 270.00,66.00 270.00,47.00 270.00,47.00 270.00,47.00 258.00,47.00 258.00,47.00 259.55,42.15 261.17,42.09 266.00,42.00 Z M 323.58,64.83 C 320.86,66.66 307.87,66.05 304.00,66.00 301.42,65.96 298.42,66.00 296.31,64.26 293.59,62.02 294.01,58.16 294.00,55.00 293.99,51.47 293.33,46.20 296.31,43.74 298.77,41.71 302.97,42.00 306.00,42.00 312.97,41.99 322.23,39.95 326.00,47.00 326.00,47.00 302.00,47.00 302.00,47.00 302.00,47.00 302.00,52.00 302.00,52.00 302.00,52.00 317.00,52.00 317.00,52.00 317.00,52.00 317.00,57.00 317.00,57.00 317.00,57.00 302.00,57.00 302.00,57.00 302.00,57.00 302.00,61.00 302.00,61.00 302.00,61.00 326.00,61.00 326.00,61.00 325.36,62.67 325.22,63.72 323.58,64.83 Z M 357.94,42.74 C 362.72,44.73 365.33,54.78 355.00,57.00 355.00,57.00 362.00,66.00 362.00,66.00 359.80,66.00 356.02,66.16 354.04,65.40 349.77,63.76 344.10,55.08 342.00,51.00 342.00,51.00 354.00,51.00 354.00,51.00 354.00,51.00 354.00,47.00 354.00,47.00 354.00,47.00 338.00,47.00 338.00,47.00 338.00,61.62 339.63,65.43 330.00,66.00 330.00,66.00 330.00,42.00 330.00,42.00 334.82,42.00 354.82,41.43 357.94,42.74 Z M 377.00,57.00 C 370.81,56.91 366.10,55.50 367.15,48.02 368.32,39.68 382.62,41.92 389.00,42.00 390.87,42.03 393.20,42.02 394.94,42.74 397.43,43.77 397.83,44.82 399.00,47.00 399.00,47.00 375.00,47.00 375.00,47.00 375.00,47.00 375.00,52.00 375.00,52.00 375.00,52.00 389.00,52.00 389.00,52.00 402.43,52.19 399.40,62.03 396.69,64.26 394.23,66.29 390.03,66.00 387.00,66.00 380.03,66.01 370.77,68.05 367.00,61.00 367.00,61.00 391.00,61.00 391.00,61.00 391.00,61.00 391.00,57.00 391.00,57.00 391.00,57.00 377.00,57.00 377.00,57.00 Z M 193.00,47.00 C 193.00,47.00 193.00,52.00 193.00,52.00 193.00,52.00 209.00,52.00 209.00,52.00 209.00,52.00 209.00,47.00 209.00,47.00 209.00,47.00 193.00,47.00 193.00,47.00 Z M 25.00,54.00 C 25.00,54.00 25.00,64.00 25.00,64.00 25.00,64.00 17.00,64.00 17.00,64.00 17.00,64.00 17.00,54.00 17.00,54.00 17.00,54.00 25.00,54.00 25.00,54.00 Z M 67.00,54.00 C 67.00,54.00 67.00,64.00 67.00,64.00 67.00,64.00 59.00,64.00 59.00,64.00 59.00,64.00 59.00,54.00 59.00,54.00 59.00,54.00 67.00,54.00 67.00,54.00 Z M 441.00,54.00 C 441.00,54.00 441.00,64.00 441.00,64.00 441.00,64.00 433.00,64.00 433.00,64.00 433.00,64.00 433.00,54.00 433.00,54.00 433.00,54.00 441.00,54.00 441.00,54.00 Z M 483.00,54.00 C 483.00,54.00 483.00,64.00 483.00,64.00 483.00,64.00 475.00,64.00 475.00,64.00 475.00,64.00 475.00,54.00 475.00,54.00 475.00,54.00 483.00,54.00 483.00,54.00 Z" /></svg>
